<svg width="40" height="40" viewBox="0 0 40 40" fill="none" xmlns="http://www.w3.org/2000/svg">
<path d="M20 2V29.3162M20 29.3162L37 11.3975M20 29.3162L3 11.3975M20 29.3162V37.3716M37 28.646L21.554 20.8103C20.9868 20.5224 27.8002 10.1118 27.5 10.0554C27.234 10.0055 12.7658 10.0055 12.5 10.0554C12.1996 10.1118 19.0132 20.5224 18.446 20.8103L3 28.646M38 27.4338V12.6097C38 11.984 38 11.6711 37.899 11.392C37.8098 11.1451 37.6636 10.9185 37.4708 10.7273C37.2526 10.5112 36.9532 10.3593 36.354 10.0554L21.554 2.54731C20.9868 2.25956 20.7032 2.11568 20.403 2.05927C20.137 2.00936 19.863 2.00936 19.5972 2.05927C19.2968 2.11568 19.0132 2.25956 18.446 2.54731L3.64594 10.0554C3.0469 10.3593 2.74738 10.5112 2.52926 10.7273C2.33632 10.9185 2.1903 11.1451 2.10096 11.392C2 11.6711 2 11.984 2 12.6097V27.4338C2 28.0597 2 28.3726 2.10096 28.6516C2.1903 28.8985 2.33632 29.1252 2.52926 29.3162C2.74738 29.5324 3.0469 29.6844 3.64594 29.9883L18.446 37.4963C19.0132 37.7842 19.2968 37.9279 19.5972 37.9843C19.863 38.0344 20.137 38.0344 20.403 37.9843C20.7032 37.9279 20.9868 37.7842 21.554 37.4963L36.354 29.9883C36.9532 29.6844 37.2526 29.5324 37.4708 29.3162C37.6636 29.1252 37.8098 28.8985 37.899 28.6516C38 28.3726 38 28.0597 38 27.4338Z" stroke="#FAF9F8" stroke-width="3" stroke-linecap="round" stroke-linejoin="round"/>
</svg>
