<svg width="159" height="22" viewBox="0 0 159 22" fill="none" xmlns="http://www.w3.org/2000/svg">
<path d="M18.768 0.775999C19.0667 0.775999 19.4293 0.978666 19.856 1.384C20.304 1.768 20.528 2.09867 20.528 2.376C20.528 3.67733 20.4853 5.45867 20.4 7.72C20.3787 8.27467 20.3573 8.94667 20.336 9.736C20.3147 10.504 20.304 11.4 20.304 12.424C20.304 15.6667 20.496 18.056 20.88 19.592C20.8587 20.104 20.656 20.4773 20.272 20.712C19.888 20.9253 19.504 21.032 19.12 21.032C18.2667 21.032 17.7013 20.7333 17.424 20.136C17.168 19.5387 17.04 18.6853 17.04 17.576C17.04 13.4587 17.0827 9.672 17.168 6.216C14.7147 8.94667 12.8053 11.24 11.44 13.096C11.44 13.096 11.248 13.224 10.864 13.48C10.5013 13.8 10.2027 13.96 9.968 13.96C9.41333 13.96 8.95467 13.8213 8.592 13.544C8.22933 13.2667 7.87733 12.8613 7.536 12.328L6 10.152C4.93333 8.65867 4.15467 7.528 3.664 6.76C3.664 8.72267 3.76 11.3893 3.952 14.76C4.10133 16.7013 4.176 18.1627 4.176 19.144C4.176 19.656 4.048 20.0933 3.792 20.456C3.536 20.7973 3.13067 20.968 2.576 20.968C2.02133 20.968 1.56267 20.8613 1.2 20.648C0.858667 20.4347 0.677334 20.1147 0.656 19.688C0.677334 19.3253 0.688 18.728 0.688 17.896C0.688 16.232 0.634667 14.2053 0.528 11.816L0.464 10.088L0.4 7.848C0.378667 7.18667 0.357333 6.41867 0.336 5.544C0.314667 4.648 0.304 3.67733 0.304 2.632C0.304 1.352 0.997334 0.712 2.384 0.712C2.81067 0.712 3.23733 0.818666 3.664 1.032C4.112 1.24533 4.44267 1.55467 4.656 1.96C4.82667 2.70667 5.456 3.944 6.544 5.672C7.632 7.4 8.69867 9.02133 9.744 10.536C10.6827 9.34133 11.4507 8.44533 12.048 7.848C13.072 6.80267 13.9147 5.832 14.576 4.936C15.2587 4.04 15.9947 2.96267 16.784 1.704C16.976 1.448 17.2533 1.23467 17.616 1.064C17.9787 0.871999 18.3627 0.775999 18.768 0.775999ZM41.4478 0.647999C42.8771 0.647999 44.1784 0.829332 45.3518 1.192C46.5251 1.53333 47.4851 2.04533 48.2318 2.728C49.5758 3.944 50.5144 5.27733 51.0478 6.728C51.6024 8.15733 51.8798 9.992 51.8798 12.232C51.8798 12.7013 51.8158 13.128 51.6878 13.512C51.5811 13.896 51.3998 14.3867 51.1438 14.984C50.8238 15.6453 50.6318 16.168 50.5678 16.552C50.1411 17.2987 49.4371 18.0133 48.4558 18.696C47.4958 19.3787 46.4504 19.9333 45.3198 20.36C44.1891 20.7867 43.1971 21 42.3438 21C38.2264 21 35.2931 19.592 33.5438 16.776C33.0531 15.9867 32.6691 15.1653 32.3918 14.312C32.1358 13.4587 32.0078 12.6267 32.0078 11.816C32.0078 9.64 32.3918 7.752 33.1598 6.152C33.9491 4.53067 35.0371 3.272 36.4238 2.376C37.2558 1.88533 38.1198 1.48 39.0158 1.16C39.9331 0.818666 40.7438 0.647999 41.4478 0.647999ZM35.3358 11.912C35.3358 13.064 35.5918 14.0133 36.1038 14.76C36.6371 15.5067 37.4478 16.3173 38.5358 17.192C39.4318 17.5333 40.0398 17.7573 40.3598 17.864C40.6798 17.9493 41.0424 17.992 41.4478 17.992C43.6024 17.992 45.3198 17.4053 46.5998 16.232C47.8798 15.0587 48.5198 13.448 48.5198 11.4C48.5198 9.77867 48.3384 8.49867 47.9757 7.56C47.6131 6.62133 46.9624 5.77867 46.0238 5.032C45.5331 4.62667 44.9038 4.328 44.1358 4.136C43.3891 3.944 42.5784 3.848 41.7038 3.848C40.3811 3.848 39.2398 4.24267 38.2798 5.032C37.3198 5.8 36.5838 6.80267 36.0718 8.04C35.5811 9.27733 35.3358 10.568 35.3358 11.912ZM63.3108 19.496C63.3108 18.792 63.3534 18.0133 63.4388 17.16C63.5241 16.1787 63.5668 14.9413 63.5668 13.448C63.5668 10.7173 63.4494 8.08267 63.2148 5.544C63.0868 3.96533 63.0228 2.84533 63.0228 2.184C63.0228 1.736 63.2468 1.36267 63.6948 1.064C64.1428 0.743999 64.6014 0.584 65.0708 0.584C65.3694 0.584 65.7321 0.605333 66.1588 0.647999C66.5854 0.690666 66.8948 0.712 67.0868 0.712C71.8868 0.712 75.4174 2.00267 77.6788 4.584C79.1081 6.248 79.8228 8.456 79.8228 11.208C79.8228 12.36 79.6094 13.5227 79.1828 14.696C78.7774 15.848 78.1908 16.7867 77.4228 17.512C76.5908 18.3227 75.8014 18.9733 75.0548 19.464C74.3294 19.9333 73.3374 20.328 72.0788 20.648C70.8414 20.968 69.2521 21.128 67.3108 21.128C66.0734 21.128 65.0921 20.9893 64.3668 20.712C63.6628 20.4347 63.3108 20.0293 63.3108 19.496ZM68.5268 18.216C69.9561 18.216 71.2681 17.96 72.4628 17.448C73.6574 16.9147 74.6174 16.1253 75.3428 15.08C76.0681 14.0133 76.4308 12.712 76.4308 11.176C76.4308 9.66133 76.2174 8.40267 75.7908 7.4C75.3641 6.376 74.6281 5.544 73.5828 4.904C72.7934 4.41333 71.8228 4.06133 70.6708 3.848C69.5188 3.61333 68.1321 3.496 66.5108 3.496C66.5108 3.70933 66.5321 4.2 66.5748 4.968C66.6174 5.69333 66.6388 6.30133 66.6388 6.792L66.6708 7.496C66.7988 9.71467 66.8628 11.4747 66.8628 12.776C66.8628 14.824 66.7454 16.5947 66.5108 18.088C67.0228 18.1733 67.6948 18.216 68.5268 18.216ZM105.02 18.952C105.042 19.4 104.988 19.72 104.86 19.912C104.732 20.0827 104.476 20.264 104.092 20.456C103.516 20.7333 102.834 20.9147 102.044 21C101.276 21.0853 100.284 21.128 99.0683 21.128H96.8923C94.9936 21.128 93.5856 20.808 92.6683 20.168C91.7509 19.5067 91.1749 18.7173 90.9403 17.8C90.7056 16.8827 90.5669 15.6987 90.5243 14.248C90.5029 13.7573 90.4923 13.032 90.4923 12.072C90.4923 9.98133 90.6736 7.18667 91.0363 3.688C91.1429 2.664 91.5163 1.928 92.1562 1.48C92.7963 1.01067 93.5216 0.775999 94.3323 0.775999C94.9936 0.775999 96.0709 0.754666 97.5642 0.712L100.38 0.679998C101.532 0.679998 102.364 0.711999 102.876 0.775999C103.516 0.903999 103.996 1.05333 104.316 1.224C104.636 1.37333 104.807 1.64 104.828 2.024C104.828 2.45067 104.69 2.86667 104.412 3.272C104.135 3.67733 103.708 3.88 103.132 3.88C102.471 3.88 101.522 3.83733 100.284 3.752C99.0469 3.66667 98.1083 3.624 97.4683 3.624C96.8923 3.624 96.3696 3.656 95.9003 3.72C95.3029 3.76267 94.8763 3.83733 94.6203 3.944C94.3643 4.05067 94.2256 4.232 94.2043 4.488C93.9696 6.81333 93.8736 8.43467 93.9163 9.352C94.4069 9.416 94.8976 9.448 95.3883 9.448C95.8789 9.448 96.5509 9.40533 97.4043 9.32C97.6176 9.29867 97.8843 9.27733 98.2043 9.256C98.5243 9.23467 98.8869 9.224 99.2923 9.224C99.5269 9.224 99.9003 9.24533 100.412 9.288L101.404 9.32C102.386 9.32 102.876 9.672 102.876 10.376C102.876 10.8027 102.759 11.144 102.524 11.4C102.29 11.656 101.874 11.848 101.276 11.976C100.466 12.1253 99.1536 12.2 97.3403 12.2H95.3883C94.9829 12.2 94.4816 12.1787 93.8843 12.136C93.8629 12.52 93.8523 13.0747 93.8523 13.8C93.8523 14.7387 93.8629 15.4 93.8843 15.784C93.9483 17.2773 94.9829 18.024 96.9883 18.024C97.6709 18.024 98.3963 18.0453 99.1643 18.088L100.348 18.12C100.903 18.12 101.362 18.0667 101.724 17.96C102.087 17.832 102.439 17.7253 102.78 17.64C103.143 17.5333 103.474 17.48 103.772 17.48C104.178 17.48 104.487 17.64 104.7 17.96C104.914 18.2587 105.02 18.5893 105.02 18.952ZM117.186 0.679998C118.103 0.679998 118.637 1.16 118.786 2.12C119.042 3.93333 119.17 6.16267 119.17 8.808L119.138 12.84V14.056C119.138 15.3787 119.106 16.6053 119.042 17.736C119.938 17.8213 120.738 17.864 121.442 17.864C122.061 17.864 122.882 17.8427 123.906 17.8L125.858 17.768C126.455 17.768 126.946 17.8 127.33 17.864C127.735 17.9067 128.151 18.0347 128.578 18.248C129.026 18.44 129.25 18.8027 129.25 19.336C129.25 19.7627 129.111 20.1467 128.834 20.488C128.578 20.8293 128.269 21 127.906 21C127.65 21 127.245 20.9573 126.69 20.872C125.687 20.7227 124.727 20.648 123.81 20.648C123.511 20.648 123.17 20.6693 122.786 20.712C122.423 20.7333 122.157 20.744 121.986 20.744C121.474 20.808 120.962 20.84 120.45 20.84C119.405 20.84 118.466 20.7867 117.634 20.68C117.207 20.6373 116.781 20.4773 116.354 20.2C115.927 19.9013 115.714 19.4747 115.714 18.92C115.714 18.2587 115.746 17.4373 115.81 16.456C115.895 14.5787 115.938 12.904 115.938 11.432C115.938 10.5787 115.906 9.66133 115.842 8.68C115.778 7.69867 115.735 7.05867 115.714 6.76C115.565 5.01067 115.49 3.51733 115.49 2.28C115.49 1.72533 115.618 1.32 115.874 1.064C116.151 0.807999 116.589 0.679998 117.186 0.679998ZM148.242 0.647999C149.607 0.647999 150.78 0.818666 151.762 1.16C152.764 1.50133 153.65 2.024 154.418 2.728C155.762 3.944 156.7 5.27733 157.234 6.728C157.788 8.15733 158.066 9.992 158.066 12.232C158.066 12.7867 157.991 13.3093 157.842 13.8C157.692 14.2693 157.468 14.8453 157.17 15.528L156.754 16.552C156.455 17.3627 155.836 18.12 154.898 18.824C153.959 19.5067 152.903 20.0507 151.73 20.456C150.556 20.8613 149.49 21.064 148.53 21.064C146.567 21.064 144.85 20.744 143.378 20.104C141.927 19.4427 140.722 18.408 139.762 17C139.271 16.2533 138.887 15.4213 138.61 14.504C138.332 13.5653 138.194 12.6693 138.194 11.816C138.194 9.64 138.578 7.752 139.346 6.152C140.135 4.53067 141.223 3.272 142.61 2.376C143.399 1.90667 144.338 1.50133 145.426 1.16C146.535 0.818666 147.474 0.647999 148.242 0.647999ZM141.586 11.816C141.586 12.9253 141.852 13.96 142.386 14.92C142.94 15.8587 143.676 16.6053 144.594 17.16C145.532 17.7147 146.556 17.992 147.666 17.992C149.948 17.992 151.687 17.416 152.882 16.264C154.098 15.112 154.706 13.4907 154.706 11.4C154.706 9.77867 154.524 8.49867 154.162 7.56C153.799 6.62133 153.148 5.77867 152.21 5.032C151.698 4.60533 151.143 4.30667 150.546 4.136C149.97 3.944 149.287 3.848 148.498 3.848C147.132 3.848 145.927 4.18933 144.882 4.872C143.836 5.55467 143.026 6.504 142.45 7.72C141.874 8.936 141.586 10.3013 141.586 11.816Z" fill="#FAF9F8"/>
</svg>
